<svg id="Ebene_1" data-name="Ebene 1" xmlns="http://www.w3.org/2000/svg" viewBox="0 0 595 165"><defs><style>.cls-1{fill:#7c7b7b}</style></defs><path class="cls-1" d="M250 57.73h17.08V65h.21c3.19-5.55 6.69-8.64 13.48-8.64 8.44 0 12.66 6.17 12.66 14.1v53H275.7v-45c0-2.37 0-6.28-4-6.28s-4 4.73-4 6.28v45H250V57.73m-51.46 17.33c0-7.72 4-18.72 21.71-18.72S242 67.35 242 75.06v18.11h-25.77v14.09c0 2.26 0 5.34 4 5.34s4-3.08 4-5.34V99H242v7c0 7.72-4 18.72-21.71 18.72s-21.71-11-21.71-18.72V75m17.7 6h8v-7.2c0-2.26 0-5.35-4-5.35s-4 3.09-4 5.35zm-96.96-23.27h17.08v8.13h.21c3.29-6 6.58-9.46 13.79-9.46 5.66 0 10.8 2.57 12.24 9.46 3.4-6 6-9.46 14.1-9.46 8.54 0 13 6 13 14.1v53H172V79.33c0-2.37 0-7.1-4.32-7.1s-4.32 5.55-4.32 7.1v44.14h-17.7V79.33c0-2.37 0-7.1-4.32-7.1s-4.34 5.56-4.34 7.1v44.14h-17.68V57.73m-35.08 0H101v11.62h.21c2.47-6.07 4.63-13 12.65-13v21.4h-4.11c-6.07 0-7.82 3.81-7.82 8.33v37.35H84.24v-65.7M57.08 41.26h17.7V53.4h-17.7V41.26m0 16.46h17.7v65.74h-17.7zM10.16 41.26h39.51v15.85H29.1v16.36h18.41v15.84H29.1v34.16H10.16V41.26"/><path d="M422.21 57.84l-.06-.25c10.36-5.06 16-12.5 13.51-24.43-3.41-16-17.07-19.23-35.09-15.4l-23.49 5 18.44 86.73 23.11-4.91c17.65-3.75 32.1-11.5 28.14-30.14-2.59-12.18-12.55-18.12-24.56-16.6zM391.67 30.3l13.05-2.77c7.2-1.53 16.58-.8 18.77 9.51 2.72 12.8-7.23 16.08-19.29 18.64l-6.83 1.45zm23.43 64.37l-9.32 2-6.23-29.33 8.08-1.72c10.68-2.27 22.89-2.92 25.74 10.5 2.47 11.68-7.09 16.18-18.27 18.55zm-66-46.88l-49.84 82.55 13.21 1.86 12-20.89 43 6.05 5.82 23.4 13.71 1.93-24.77-93zm-19.11 53.77l23.61-41.07 11.37 46zM510.77 52.8a36.55 36.55 0 0118.47 6.06l1.7-12.57a50.19 50.19 0 00-20.22-5c-27.71-1.45-49 16.09-50.45 44.07-1.51 28.88 16.65 48.36 45.4 49.87 5.33.28 13.81.33 20.86-2.17l-.12-12.66c-4.7 2.49-13.5 3.73-20 3.39-18.87-1-33.47-16-32.36-37.31 1.06-20.42 15.77-34.78 36.72-33.68z" fill="#e20613"/><path d="M410 95.76l-4.86-22.89 8.08-1.72c6.46-1.37 13.46-2.14 18.63.41-4.44-8.67-14.88-7.94-24.17-6l-8.08 1.72 6.23 29.33zm-53.82-24.64l-2.63-10.63-23.61 41.07 8.06 1.14zm41-35.27l13.05-2.77c3.91-.83 8.46-1 12.15.69-3.32-7.17-11.35-7.59-17.7-6.24l-13.01 2.77 5.71 26.84 4.18-.89zm-72.75 75.46l-12 20.89-5-.71-2.65 4.4 13.22 1.86 12-20.89 38.71 5.44-1.23-4.94zm97.68-53.72l.06.25a24.93 24.93 0 0112 1.26c6.05-4.81 8.91-11.29 7-20.38-1.36-6.41-4.37-10.76-8.63-13.44a23.92 23.92 0 013.08 7.89c2.57 11.92-3.11 19.36-13.47 24.42zm104.33 70.34v5.14c-7 2.5-15.52 2.45-20.86 2.17-12.09-.63-22.29-4.45-30-10.8 7.94 9.67 20.23 15.55 35.51 16.35 5.33.28 13.81.33 20.86-2.17L532 126a24.68 24.68 0 01-5.52 1.93zM363.58 54.61L387 142.69l-9.4-1.32 1.23 4.94 13.71 1.93-24.77-93zm166.93-5.22l-1.28 9.46a36.55 36.55 0 00-18.47-6.06c-20.94-1.09-35.65 13.27-36.76 33.7-.68 13 4.46 23.59 12.83 30.15-5-6.37-7.8-14.81-7.28-24.6 1.07-20.43 15.79-34.79 36.73-33.69a36.56 36.56 0 0118.47 6.06l1.7-12.57a43 43 0 00-5.93-2.45zm-87 17.15a23 23 0 013.21 7.89c4 18.64-10.49 26.39-28.14 30.14l-18.93 4 1.37 6.44 23.11-4.91c17.65-3.75 32.1-11.5 28.14-30.14a20.6 20.6 0 00-8.71-13.42z" fill="#b3b3b3"/><path class="cls-1" d="M575.56 106.1h-3.95v-3.9h3.95v-4.1l5.34-1.71v5.82h4.74v3.9h-4.74v9.56c0 1.75.48 3.39 2.51 3.39a4.76 4.76 0 002.43-.56l.16 4.22a14.09 14.09 0 01-3.94.48c-4.19 0-6.49-2.59-6.49-6.65V106.1m-22.99-2.83a18.34 18.34 0 017.13-1.55c6.25 0 8.84 2.59 8.84 8.64V113c0 2.07 0 3.63.08 5.14s.12 3 .24 4.58h-4.7a24.42 24.42 0 01-.24-3.07h-.08a7.33 7.33 0 01-6.34 3.55c-3.62 0-7.17-2.19-7.17-6.1a6 6 0 013.51-5.85 16.24 16.24 0 016.89-1.19h2.95c0-3.31-1.47-4.42-4.62-4.42a10.72 10.72 0 00-6.33 2.23l-.16-4.58m6.25 16a4.53 4.53 0 003.74-1.83 6.78 6.78 0 001.11-4.22h-2.31c-2.39 0-5.94.4-5.94 3.55.02 1.74 1.49 2.49 3.4 2.49zm-18.24-2.16h5.57v5.58h-5.57z"/></svg>