<svg version="1.1" id="Ebene_1" xmlns="http://www.w3.org/2000/svg" x="0" y="0" viewBox="0 0 130.4 129.7" xml:space="preserve"><linearGradient id="SVGID_1_" gradientUnits="userSpaceOnUse" x1="0" y1="68.14" x2="130.42" y2="68.14" gradientTransform="matrix(1 0 0 -1 0 132.98)"><stop offset="0" stop-color="#e8c46c"/><stop offset=".33" stop-color="#b78b2f"/><stop offset=".48" stop-color="#dcc278"/><stop offset=".59" stop-color="#f5e6a8"/><stop offset=".65" stop-color="#fff4bb"/><stop offset=".66" stop-color="#fef1b6"/><stop offset=".81" stop-color="#f2d98e"/><stop offset=".93" stop-color="#ebca75"/><stop offset="1" stop-color="#e8c46c"/></linearGradient><ellipse cx="65.2" cy="64.8" rx="64.2" ry="63.8" fill="#fff" stroke="url(#SVGID_1_)" stroke-width="2" stroke-miterlimit="10"/><path d="M18.8 30.4l4.8-5.5 1.2 1-3.6 4.1 2.1 1.8 3.1-3.6 1.1 1-3.1 3.6 3.5 3-1.2 1.4-7.9-6.8zm7.7-8.2l1.4-1.2 6.8 8-1.4 1.2-6.8-8zm5.3-4.3l4.3-2.6c2-1.2 3.5-.9 4.5.6.7 1 .6 2.3-.2 3.2.6-.3 1.6-.3 2.5 1.1.4.9 1.1 1.6 1.9 2.1l-1.7 1c-.4-.3-.8-.7-1-1.2-1-1.7-1.8-2.2-3.2-1.3l-2.4 1.4 2.2 3.7-1.6 1-5.3-9zm4 3.1l2.6-1.5c.8-.3 1.2-1.2.9-2 0-.1-.1-.2-.2-.3-.7-1.1-1.6-.9-2.4-.4l-2.6 1.5 1.7 2.7zm8.1-9.7l2.5-.7 5 7.1.5-8.7 2.5-.7 2.9 10.1-1.7.5-2.2-7.8-.6 8.6-1.5.4-5-7 2.2 7.8-1.7.5-2.9-10.1zM60 7.7l7.6-.2v1.6l-5.8.2.1 2.8 5.3-.1v1.5H62l.1 3.1 5.8-.2V18l-7.7.2L60 7.7zm12.3.1l1.9.4 3.3 8.5L79 9.1l1.7.3-2 10.3-1.9-.4-3.3-8.5-1.5 7.7-1.7-.3 2-10.4zm16.1 4.5l1.8.8-.6 11.2-1.8-.8.2-2.9-3.8-1.7-2 2.1-1.7-.8 7.9-7.9zm-3.2 5.5l2.9 1.3.4-4.8-3.3 3.5zm12.2-.7l4.1 3.1c1.5 1.1 2 2.6.9 4-.6.8-1.6 1.2-2.6.9.8 1 .8 2.4-.1 3.3-1 1.3-2.7 1.6-4.9 0l-3.9-3 6.5-8.3zm-4 8.2l2.6 2c.6.6 1.6.6 2.2 0 .1-.1.1-.2.2-.2.6-.7.5-1.6-.2-2.2-.1-.1-.2-.1-.3-.2l-2.6-2-1.9 2.6zm2.8-3.6l2.4 1.8c.6.5 1.5.5 2-.1 0 0 .1-.1.1-.2.6-.8.4-1.5-.4-2.1L98 19.4l-1.8 2.3zm13.6 11.7c.9-1 .9-2.4 0-3.4-1.4-1.8-3.6-1.2-5.1 0s-2.5 3.3-1.1 5c1 1.2 2.7 1.3 3.8.4l1.1 1.4c-1.9 1.5-4.6 1.2-6.1-.7l-.1-.1c-2-2.5-1.3-5.5 1.1-7.4s5.5-2 7.5.4c1.5 1.8 1.7 4.1 0 5.7l-1.1-1.3zM23.5 87.6l4.1 6.4-1.3.8-3.2-4.8-2.3 1.5 2.9 4.5-1.3.8-2.9-4.5-2.6 1.7 3.1 4.9-1.3.9-4.1-6.5 8.9-5.7zm5.4 8.4l1.9 1.8-3.5 8 7.7-4.1 1.9 1.8-7.2 7.7-1.3-1.2 5.6-6-7.7 3.9-1.1-1 3.4-7.9-5.5 5.9-1.3-1.2 7.1-7.7zm10.6 9.1l4.1 2.2c2.7 1.4 2.3 3.4 1.6 4.6s-2 2.6-4.7 1.1l-2.5-1.3-1.9 3.6-1.7-.9 5.1-9.3zm-.7 5.2l2.4 1.3c.8.5 1.8.3 2.3-.4 0-.1.1-.1.1-.2.5-.7.3-1.7-.4-2.2-.1-.1-.3-.2-.4-.2l-2.4-1.3-1.6 3zm10-.7l7 2-.5 1.5-5.2-1.5-.8 2.6 4.6 1.3-.4 1.5-4.6-1.3-1.3 4.5-1.8-.5 3-10.1zm8.8 2.4l7.6.6-.1 1.6-5.7-.5-.3 2.8 5.3.4-.1 1.5-5.3-.4-.3 3.1 5.8.4-.1 1.6-7.7-.6.9-10.5zm9.8.6l1.8-.3.6 4.1 4.8-.6-.6-4.1 1.8-.3 1.4 10.4-1.8.3-.6-4.7-4.8.6.6 4.7-1.8.3-1.4-10.4zm11-1.9l1.7-.6 3 8.4 5-1.8.5 1.5-6.8 2.5-3.4-10zm8.3-3.2l1.6-1 3.3 5.2c.8 1.2 1.7 2.5 3.7 1.3s1.2-2.7.5-3.9l-3.3-5.2 1.6-1 3.6 5.7c1.4 2.3.7 4.3-1.5 5.7s-4.4 1.2-5.8-1.1l-3.7-5.7zm9.4-6.3l1.4-1.4 8.9 1.9-5.6-5.4L102 95l7.5 7.3-1.4 1.4-8.9-1.9 5.5 5.4-1.2 1.2-7.4-7.2zm21.4-11.1l-.6 1-1.2-.4c.5 1.1.4 2.5-.3 3.5-1.6 2.7-4.7 3.1-7.3 1.6s-3.8-4.4-2.2-7.1c1.2-2 3.2-3.1 5.4-2.1l-.9 1.6c-1.2-.4-2.6.1-3.2 1.4-1.1 2 .1 3.8 1.9 4.8 1.8 1 3.9 1.2 5.1-.8.9-1.2.6-2.9-.6-3.7-.1-.1-.3-.2-.4-.3l-1.4 2.4-1.2-.7 2.3-3.9 4.6 2.7z" fill="#bd9e56"/><linearGradient id="SVGID_2_" gradientUnits="userSpaceOnUse" x1="53.526" y1="56.175" x2="94.605" y2="97.263" gradientTransform="matrix(1 0 0 -1 0 132.98)"><stop offset="0" stop-color="#e8c46c"/><stop offset=".36" stop-color="#b78b2f"/><stop offset=".56" stop-color="#dcc278"/><stop offset=".72" stop-color="#f5e6a8"/><stop offset=".79" stop-color="#fff4bb"/><stop offset=".85" stop-color="#fef2b8"/><stop offset=".89" stop-color="#fbecae"/><stop offset=".93" stop-color="#f7e29e"/><stop offset=".97" stop-color="#f0d487"/><stop offset="1" stop-color="#e8c46c"/></linearGradient><linearGradient id="SVGID_3_" gradientUnits="userSpaceOnUse" x1="42.657" y1="68.231" x2="105.463" y2="68.231" gradientTransform="matrix(1 0 0 -1 0 132.98)"><stop offset="0" stop-color="#e8c46c"/><stop offset=".22" stop-color="#fff9d7"/><stop offset=".23" stop-color="#fffad9"/><stop offset=".42" stop-color="#ccac61"/><stop offset=".51" stop-color="#b78b2f"/><stop offset=".63" stop-color="#dcc278"/><stop offset=".71" stop-color="#f5e6a8"/><stop offset=".76" stop-color="#fff4bb"/><stop offset=".77" stop-color="#fef1b6"/><stop offset=".87" stop-color="#f2d98e"/><stop offset=".95" stop-color="#ebca75"/><stop offset="1" stop-color="#e8c46c"/></linearGradient><path d="M66.5 87.1c-1.6 0-3.2-.6-4.4-1.8L45 68.3c-2.4-2.4-2.4-6.3 0-8.7 0 0 0 0 0 0 2.4-2.4 6.4-2.4 8.8 0l12.7 12.6 27.8-27.9c2.4-2.4 6.4-2.4 8.8 0 2.4 2.4 2.4 6.3 0 8.7 0 0 0 0 0 0L70.9 85.2c-1.1 1.2-2.7 1.9-4.4 1.9z" fill="url(#SVGID_2_)" stroke="url(#SVGID_3_)" stroke-miterlimit="10"/><linearGradient id="SVGID_4_" gradientUnits="userSpaceOnUse" x1="66.246" y1="27.12" x2="66.246" y2="108.21" gradientTransform="matrix(1 0 0 -1 0 132.98)"><stop offset="0" stop-color="#e8c46c"/><stop offset=".33" stop-color="#b78b2f"/><stop offset=".48" stop-color="#dcc278"/><stop offset=".59" stop-color="#f5e6a8"/><stop offset=".65" stop-color="#fff4bb"/><stop offset=".66" stop-color="#fef1b6"/><stop offset=".81" stop-color="#f2d98e"/><stop offset=".93" stop-color="#ebca75"/><stop offset="1" stop-color="#e8c46c"/></linearGradient><linearGradient id="SVGID_5_" gradientUnits="userSpaceOnUse" x1="24.41" y1="67.655" x2="106.97" y2="67.655" gradientTransform="matrix(1 0 0 -1 0 132.98)"><stop offset="0" stop-color="#e8c46c"/><stop offset=".22" stop-color="#fff9d7"/><stop offset=".23" stop-color="#fffad9"/><stop offset=".42" stop-color="#ccac61"/><stop offset=".51" stop-color="#b78b2f"/><stop offset=".63" stop-color="#dcc278"/><stop offset=".71" stop-color="#f5e6a8"/><stop offset=".76" stop-color="#fff4bb"/><stop offset=".77" stop-color="#fef1b6"/><stop offset=".87" stop-color="#f2d98e"/><stop offset=".95" stop-color="#ebca75"/><stop offset="1" stop-color="#e8c46c"/></linearGradient><path d="M105.2 55.5L94 66.7c-.7 15.6-13.9 27.7-29.5 27s-27.7-13.9-27-29.5c.7-15.6 13.9-27.7 29.5-27 7.8.3 15.1 3.9 20.1 9.8l8.8-8.8c-15-16.4-40.4-17.6-56.8-2.6S21.6 76 36.5 92.4 76.9 110 93.4 95c10.2-9.3 14.9-23.1 12.5-36.6-.2-1-.4-2-.7-2.9z" fill="url(#SVGID_4_)" stroke="url(#SVGID_5_)" stroke-miterlimit="10"/></svg>