<svg xmlns="http://www.w3.org/2000/svg" viewBox="0 0 500 500"><path fill="#FCBF34" d="M481 250c0 127.58-103.42 231-231 231S19 377.58 19 250 122.42 19 250 19c127.58.01 231 103.42 231 231z"/><path fill="#FFF" d="M465.02 250c0 118.75-96.27 215.02-215.02 215.02-118.75 0-215.02-96.27-215.02-215.02 0-118.75 96.27-215.02 215.02-215.02 118.75.01 215.02 96.27 215.02 215.02z"/><path fill="#FCBF34" d="M461.37 250c0 116.74-94.63 211.37-211.37 211.37-116.74 0-211.37-94.63-211.37-211.37 0-116.74 94.63-211.37 211.37-211.37 116.74 0 211.37 94.63 211.37 211.37z"/><path d="M122.78 100.65l1.85-1.72 22.95 11.04-1.78 1.65-7.13-3.43-7.91 7.35 2.93 7.34-1.78 1.65-9.13-23.88zm7.18 12.99l6.83-6.35-11.63-5.78 4.8 12.13zm5.94-24.51l1.85-1.29 8.39 12.04c3.12 4.54 6.47 4.76 10.04 2.27 3.6-2.51 4.55-5.72 1.37-10.23l-8.39-12.04 1.85-1.29 8.67 12.45c2.79 4.01 3.01 8.91-2.41 12.69-5.4 3.76-9.92 1.85-12.71-2.15l-8.66-12.45zm30.38-.99c2.12 4.4 5.93 4.14 9.79 2.19 2.22-1.13 4.98-4.05 3.42-7.13-1.22-2.4-4.1-2.13-6.29-1.61l-5.3 1.23c-2.8.64-5.69.61-7.35-2.68-1.05-2.07-1.69-6.63 4.27-9.65 4.18-2.12 8.99-1.73 11.15 2.61l-2.01 1.02c-1.76-3.17-5.25-3.45-8.24-1.93-2.76 1.4-4.76 3.75-3.17 6.9 1.01 1.98 2.91 2.06 4.84 1.61l5.8-1.34c3.4-.72 6.55-.68 8.3 2.79.74 1.45 2.47 6.34-5.02 10.14-5.01 2.54-9.82 2.15-12.2-3.13l2.01-1.02zm40.88-8.44l-1.54.52-1.66-4-.06.02c-.43 3.72-3 6.09-6.24 7.19-7.08 2.39-12.49-2-14.56-8.14-2.07-6.14-.42-12.9 6.66-15.29 4.72-1.59 9.42-.34 11.9 4.3l-2.14.72c-1.15-2.49-4.86-4.64-9.14-3.2-5.95 2.01-6.79 7.83-5.14 12.74 1.66 4.91 5.85 9.04 11.8 7.03 4.98-1.68 6.69-6.15 5-10.87l-7.65 2.58-.62-1.83 9.54-3.21 3.85 11.44zm.25-24.31l16.1-3.02.35 1.89-13.88 2.6 1.58 8.42 13-2.43.36 1.89-13 2.43 1.73 9.21 14.04-2.63.36 1.89-16.26 3.04-4.38-23.29zm21.65-3.67l17.04-1.05.12 1.99-14.36 20.72 15.91-.98.12 1.92-18.43 1.14-.12-1.99 14.36-20.72-14.52.9-.12-1.93zm23.65-.97l16.35 1.02-.12 1.92-14.09-.88-.53 8.55 13.2.82-.12 1.92-13.2-.82-.58 9.35 14.26.89-.12 1.92-16.51-1.03 1.46-23.66zm22.57 2.03l2.23.34-3.58 23.45-2.23-.34 3.58-23.45zm25.15 12.81c.14-3.74-2.27-6.52-5.61-7.38-6.08-1.57-9.96 2.85-11.25 7.87-1.29 5.02-.03 10.76 6.05 12.33 4.25 1.09 7.79-1.49 9.26-5.47l2.19.56c-2.06 5.47-6.56 8.16-11.93 6.77-7.24-1.86-9.37-8.48-7.76-14.76 1.62-6.27 6.68-11.04 13.92-9.17 4.34 1.12 7.98 4.83 7.32 9.81l-2.19-.56zm11.21-3.85l2.08.88-4.02 9.48 12.96 5.5 4.02-9.48 2.08.88-9.26 21.83-2.08-.88 4.49-10.58-12.96-5.5-4.49 10.58-2.08-.88 9.26-21.83zm24.73 11.19l2.15 1.32 1.32 24.32.06.03 10.47-17.11 1.93 1.18-12.37 20.23-2.15-1.32-1.32-24.32-.06-.03-10.47 17.11-1.93-1.18 12.37-20.23zm22.7 14.68l12.69 10.34-1.22 1.49-10.94-8.92-5.41 6.64 10.25 8.35-1.22 1.49-10.25-8.35-5.92 7.26 11.07 9.02-1.22 1.49L344.09 106l14.98-18.39zm15.78 13.16l13.01 13.57-1.39 1.33-5.72-5.97-15.72 15.08-1.56-1.63 15.72-15.08-5.72-5.97 1.38-1.33zM159.86 397.1l14.04 8.43-.99 1.65-12.1-7.27-4.41 7.35 11.33 6.8-.99 1.65-11.33-6.8-4.82 8.03 12.24 7.35-.99 1.65-14.18-8.51 12.2-20.33zm16.89 10.09l3.07 1.28-.43 22.34 15.54-16.04 3.07 1.28-9.13 21.88-2.08-.87 7.89-18.91-.06-.02-15.37 15.79-1.96-.82.38-22.04-.06-.02-7.89 18.91-2.08-.87 9.11-21.89zm25.83 10.13l10.21 2.58c4.12 1.04 6.21 4.14 5.16 8.29-1.05 4.15-4.36 5.89-8.48 4.84l-8.02-2.03-2.49 9.85-2.19-.55 5.81-22.98zm-.66 11.82l7.53 1.9c3.03.77 5.51-.25 6.31-3.41.8-3.15-.91-5.23-3.93-5.99l-7.53-1.9-2.38 9.4zm21.27-7.03l14.92 1.93-.25 1.91-12.68-1.64-1.1 8.5 11.27 1.46-.25 1.91-11.27-1.46-1.45 11.2-2.24-.29 3.05-23.52zm27.79 1.7c7.44-.01 11.17 5.87 11.17 12.34.01 6.48-3.71 12.36-11.15 12.37-7.47.01-11.2-5.87-11.2-12.34-.01-6.48 3.7-12.36 11.18-12.37zm.02 22.78c6.24-.01 8.9-5.26 8.89-10.44-.01-5.18-2.67-10.43-8.91-10.42-6.28.01-8.93 5.26-8.92 10.44 0 5.19 2.66 10.43 8.94 10.42zm14.67-22.7l2.23-.33 1.52 10.18 13.93-2.07-1.52-10.18 2.23-.33 3.49 23.46-2.23.33-1.69-11.37-13.93 2.07 1.69 11.37-2.23.33-3.49-23.46zm23.22-3.95l2.17-.61 5.92 20.97 12.79-3.61.52 1.85-14.96 4.22-6.44-22.82zm17.36-5.15l15.13-6.26.74 1.78-13.05 5.39 3.28 7.92 12.22-5.05.74 1.78-12.22 5.05 3.58 8.66 13.2-5.46.74 1.78-15.29 6.32-9.07-21.91zm18.2-7.75l2.18-1.27 22.02 10.43.06-.03-10.06-17.36 1.95-1.13 11.89 20.52-2.19 1.27-22.02-10.43-.06.03 10.06 17.36-1.95 1.13-11.88-20.52zm-72.16-200.28c-2 0-4-.76-5.53-2.28l-21.62-21.5c-3.07-3.05-3.08-8.02-.03-11.09 3.05-3.07 8.02-3.09 11.09-.03l16.08 15.98 35.06-35.36a7.846 7.846 0 0111.09 0 7.846 7.846 0 010 11.09l-40.59 40.89a7.83 7.83 0 01-5.55 2.3" fill="#FFF"/><path fill="#FFF" d="M233.13 230.67c-27.12-10-41.05-40.21-31.04-67.33 10-27.12 40.21-41.05 67.33-31.04 4.29 1.58 6.49 6.35 4.91 10.64-1.58 4.29-6.35 6.49-10.64 4.91-18.55-6.84-39.2 2.68-46.04 21.23-6.84 18.55 2.68 39.2 21.23 46.04 18.55 6.84 39.2-2.68 46.04-21.23 1.58-4.29 6.35-6.49 10.64-4.91s6.49 6.35 4.91 10.64c-10.02 27.13-40.22 41.05-67.34 31.05zM98.39 309.16v-46.34h15.02c5.69 0 9.4.23 11.13.69 2.66.69 4.88 2.21 6.67 4.54s2.69 5.34 2.69 9.02c0 2.85-.52 5.24-1.55 7.17-1.03 1.94-2.34 3.46-3.93 4.57-1.59 1.11-3.21 1.84-4.85 2.2-2.23.44-5.47.66-9.71.66h-6.1v17.48h-9.37zm9.36-38.5v13.15h5.12c3.69 0 6.15-.24 7.4-.73 1.24-.48 2.22-1.24 2.92-2.28.71-1.03 1.06-2.23 1.06-3.6 0-1.69-.5-3.08-1.49-4.17-.99-1.1-2.24-1.78-3.76-2.05-1.12-.21-3.36-.32-6.73-.32h-4.52zm70.8 38.5h-10.18l-4.05-10.53H145.8l-3.82 10.53h-9.93l18.05-46.34h9.9l18.55 46.34zm-17.23-18.33l-6.38-17.19-6.26 17.19h12.64zm22.22 18.33v-46.34h19.69c4.95 0 8.55.42 10.79 1.25 2.24.83 4.04 2.31 5.39 4.44 1.35 2.13 2.02 4.56 2.02 7.3 0 3.48-1.02 6.35-3.07 8.61-2.04 2.27-5.1 3.69-9.17 4.28 2.02 1.18 3.69 2.48 5.01 3.89 1.32 1.41 3.09 3.92 5.33 7.52l5.66 9.04H214l-6.76-10.08c-2.4-3.6-4.05-5.87-4.93-6.81s-1.82-1.58-2.81-1.93c-.99-.35-2.56-.52-4.71-.52h-1.9v19.34h-9.35zm9.36-26.74h6.92c4.49 0 7.29-.19 8.41-.57 1.12-.38 1.99-1.03 2.62-1.96.63-.93.95-2.09.95-3.48 0-1.56-.42-2.82-1.25-3.78-.83-.96-2.01-1.57-3.53-1.82-.76-.11-3.03-.16-6.83-.16h-7.3v11.77zm47.79 26.74v-38.5h-13.75v-7.84h36.82v7.84h-13.72v38.5h-9.35zm29.21 0v-46.34h9.1l18.97 30.94v-30.94h8.69v46.34h-9.39l-18.68-30.22v30.22h-8.69zm46.65 0v-46.34h34.36v7.84h-25v10.27h23.26v7.81h-23.26v12.61h25.89v7.81h-35.25zm43.21 0v-46.34h19.69c4.95 0 8.55.42 10.79 1.25 2.24.83 4.04 2.31 5.39 4.44s2.02 4.56 2.02 7.3c0 3.48-1.02 6.35-3.07 8.61-2.04 2.27-5.1 3.69-9.17 4.28 2.02 1.18 3.69 2.48 5.01 3.89 1.31 1.41 3.09 3.92 5.32 7.52l5.66 9.04h-11.19l-6.76-10.08c-2.4-3.6-4.05-5.87-4.93-6.81s-1.82-1.58-2.81-1.93c-.99-.35-2.56-.52-4.71-.52h-1.9v19.34h-9.34zm9.36-26.74h6.92c4.49 0 7.29-.19 8.41-.57 1.11-.38 1.99-1.03 2.62-1.96.63-.93.95-2.09.95-3.48 0-1.56-.42-2.82-1.25-3.78-.84-.96-2.01-1.57-3.52-1.82-.76-.11-3.04-.16-6.83-.16h-7.3v11.77z"/><path d="M98.39 355.13v-30.42h4.03v12.49h15.81v-12.49h4.03v30.42h-4.03v-14.34h-15.81v14.34h-4.03zm27.23 0l11.68-30.42h4.34l12.45 30.42h-4.59l-3.55-9.21h-12.72l-3.34 9.21h-4.27zm8.78-12.49h10.32l-3.18-8.43c-.97-2.56-1.69-4.66-2.16-6.31-.39 1.95-.93 3.89-1.64 5.81l-3.34 8.93zm22.87 12.49v-30.42h4.13l15.98 23.89v-23.89h3.86v30.42h-4.13l-15.98-23.91v23.91h-3.86zm30.73 0v-30.42h10.48c2.36 0 4.17.14 5.42.44 1.74.4 3.23 1.13 4.46 2.18 1.6 1.36 2.8 3.09 3.6 5.2s1.19 4.52 1.19 7.23c0 2.31-.27 4.36-.81 6.14-.54 1.79-1.23 3.26-2.08 4.43-.85 1.17-1.77 2.09-2.77 2.76-1 .67-2.21 1.18-3.63 1.53-1.42.35-3.05.52-4.89.52H188zm4.03-3.59h6.5c2.01 0 3.58-.19 4.72-.56 1.14-.37 2.05-.9 2.73-1.58.96-.95 1.7-2.24 2.23-3.85.53-1.61.8-3.57.8-5.86 0-3.18-.52-5.63-1.57-7.34s-2.31-2.85-3.81-3.43c-1.08-.42-2.81-.62-5.21-.62h-6.39v23.24zm31.98 3.59l-8.07-30.42h4.13l4.63 19.94c.5 2.09.93 4.16 1.29 6.23.77-3.25 1.23-5.13 1.37-5.62l5.79-20.54h4.86l4.36 15.4c1.09 3.82 1.88 7.41 2.37 10.77.39-1.92.89-4.13 1.52-6.62l4.77-19.55h4.05l-8.34 30.42h-3.88l-6.41-23.18c-.54-1.94-.86-3.13-.95-3.57-.32 1.4-.62 2.59-.89 3.57l-6.45 23.18h-4.15zm34.88 0v-30.42h22v3.59h-17.97v9.32h16.83v3.57h-16.83v10.36h18.68v3.59h-22.71zm28.33 0v-30.42h13.49c2.71 0 4.77.27 6.18.82 1.41.55 2.54 1.51 3.38 2.89.84 1.38 1.27 2.91 1.27 4.59 0 2.16-.7 3.98-2.1 5.46-1.4 1.48-3.56 2.42-6.48 2.82 1.07.51 1.88 1.02 2.43 1.51 1.18 1.08 2.29 2.43 3.34 4.05l5.29 8.28h-5.06l-4.03-6.33c-1.18-1.83-2.14-3.22-2.9-4.19-.76-.97-1.44-1.65-2.04-2.04-.6-.39-1.21-.66-1.84-.81-.46-.1-1.2-.15-2.24-.15h-4.67v13.51h-4.02zm4.02-17h8.65c1.84 0 3.28-.19 4.32-.57 1.04-.38 1.83-.99 2.36-1.83.54-.84.81-1.75.81-2.73 0-1.44-.52-2.62-1.57-3.55-1.05-.93-2.69-1.39-4.95-1.39h-9.63v10.07zm26.44 17v-30.42h4.03v15.09l15.11-15.09h5.46l-12.76 12.33 13.32 18.1h-5.31l-10.83-15.4-4.98 4.86v10.54h-4.04zm28.6 0v-30.42h22v3.59h-17.97v9.32h16.83v3.57h-16.83v10.36h18.68v3.59h-22.71zm28.33 0v-30.42h13.49c2.71 0 4.77.27 6.18.82 1.41.55 2.54 1.51 3.38 2.89.84 1.38 1.27 2.91 1.27 4.59 0 2.16-.7 3.98-2.1 5.46-1.4 1.48-3.56 2.42-6.48 2.82 1.07.51 1.88 1.02 2.43 1.51 1.18 1.08 2.29 2.43 3.34 4.05l5.29 8.28h-5.06l-4.03-6.33c-1.18-1.83-2.14-3.22-2.9-4.19-.76-.97-1.44-1.65-2.04-2.04-.6-.39-1.21-.66-1.84-.81-.46-.1-1.2-.15-2.24-.15h-4.67v13.51h-4.02zm4.02-17h8.65c1.84 0 3.28-.19 4.32-.57 1.04-.38 1.83-.99 2.36-1.83.54-.84.81-1.75.81-2.73 0-1.44-.52-2.62-1.57-3.55-1.05-.93-2.69-1.39-4.95-1.39h-9.63v10.07z" fill="#1D1D1B"/></svg>