<svg version="1.1" id="Ebene_1" xmlns="http://www.w3.org/2000/svg" x="0" y="0" viewBox="0 0 38.8 38.6" xml:space="preserve"><linearGradient id="SVGID_1_" gradientUnits="userSpaceOnUse" x1="13.656" y1="24.739" x2="33.09" y2="5.306"><stop offset="0" stop-color="#e8c46c"/><stop offset=".364" stop-color="#b78b2f"/><stop offset=".565" stop-color="#dcc278"/><stop offset=".717" stop-color="#f5e6a8"/><stop offset=".792" stop-color="#fff4bb"/><stop offset=".849" stop-color="#fef2b8"/><stop offset=".893" stop-color="#fbecae"/><stop offset=".932" stop-color="#f7e29e"/><stop offset=".968" stop-color="#f0d487"/><stop offset="1" stop-color="#e8c46c"/></linearGradient><linearGradient id="SVGID_2_" gradientUnits="userSpaceOnUse" x1="8.632" y1="19.025" x2="38.101" y2="19.025"><stop offset="0" stop-color="#e8c46c"/><stop offset=".221" stop-color="#fff9d7"/><stop offset=".225" stop-color="#fffad9"/><stop offset=".422" stop-color="#ccac61"/><stop offset=".512" stop-color="#b78b2f"/><stop offset=".627" stop-color="#dcc278"/><stop offset=".714" stop-color="#f5e6a8"/><stop offset=".757" stop-color="#fff4bb"/><stop offset=".768" stop-color="#fef1b6"/><stop offset=".87" stop-color="#f2d98e"/><stop offset=".951" stop-color="#ebca75"/><stop offset="1" stop-color="#e8c46c"/></linearGradient><path d="M19.8 29.6c-.7 0-1.5-.3-2.1-.8l-8.1-8c-1.2-1.1-1.2-3 0-4.1 1.1-1.1 3-1.2 4.2 0l6 6L33 9.3c1.1-1.1 3-1.1 4.2 0 1.1 1.1 1.1 3 0 4.1L21.9 28.7c-.6.6-1.3.9-2.1.9z" fill="url(#SVGID_1_)" stroke="url(#SVGID_2_)" stroke-width=".25" stroke-miterlimit="10"/><linearGradient id="SVGID_3_" gradientUnits="userSpaceOnUse" x1="19.408" y1="38.468" x2="19.408" y2=".125"><stop offset="0" stop-color="#e8c46c"/><stop offset=".334" stop-color="#b78b2f"/><stop offset=".482" stop-color="#dcc278"/><stop offset=".593" stop-color="#f5e6a8"/><stop offset=".648" stop-color="#fff4bb"/><stop offset=".664" stop-color="#fef1b6"/><stop offset=".812" stop-color="#f2d98e"/><stop offset=".929" stop-color="#ebca75"/><stop offset="1" stop-color="#e8c46c"/></linearGradient><linearGradient id="SVGID_4_" gradientUnits="userSpaceOnUse" x1="0" y1="19.297" x2="38.816" y2="19.297"><stop offset="0" stop-color="#e8c46c"/><stop offset=".221" stop-color="#fff9d7"/><stop offset=".225" stop-color="#fffad9"/><stop offset=".422" stop-color="#ccac61"/><stop offset=".512" stop-color="#b78b2f"/><stop offset=".627" stop-color="#dcc278"/><stop offset=".714" stop-color="#f5e6a8"/><stop offset=".757" stop-color="#fff4bb"/><stop offset=".768" stop-color="#fef1b6"/><stop offset=".87" stop-color="#f2d98e"/><stop offset=".951" stop-color="#ebca75"/><stop offset="1" stop-color="#e8c46c"/></linearGradient><path d="M38.1 14.6l-5.3 5.3c-.3 7.1-6.2 12.7-13.4 12.7C12 32.6 6 26.6 6 19.3 6 12 12 6 19.4 6c3.9 0 7.6 1.7 10.2 4.6l4.2-4.1C30.1 2.5 25 .2 19.5.2 8.8.1.1 8.7.1 19.3c0 10.6 8.7 19.2 19.3 19.2 10.6 0 19.3-8.6 19.3-19.2 0-1.1-.1-2.2-.3-3.3-.1-.4-.2-.9-.3-1.4z" fill="url(#SVGID_3_)" stroke="url(#SVGID_4_)" stroke-width=".25" stroke-miterlimit="10"/></svg>