<svg version="1.1" id="Ebene_1" xmlns="http://www.w3.org/2000/svg" x="0" y="0" viewBox="0 0 29.9 28.6" xml:space="preserve"><linearGradient id="SVGID_1_" gradientUnits="userSpaceOnUse" x1=".778" y1="14.088" x2="29.559" y2="14.088"><stop offset="0" stop-color="#e8c46c"/><stop offset=".221" stop-color="#fff9d7"/><stop offset=".225" stop-color="#fffad9"/><stop offset=".422" stop-color="#ccac61"/><stop offset=".512" stop-color="#b78b2f"/><stop offset=".627" stop-color="#dcc278"/><stop offset=".714" stop-color="#f5e6a8"/><stop offset=".757" stop-color="#fff4bb"/><stop offset=".768" stop-color="#fef1b6"/><stop offset=".87" stop-color="#f2d98e"/><stop offset=".951" stop-color="#ebca75"/><stop offset="1" stop-color="#e8c46c"/></linearGradient><path d="M1.8 10.9l8.8-1.6 4.5-8 4.4 8 9.2 1.8-6.1 6.5s1.3 9.6 1.1 9.5c-.3-.1-8.5-3.8-8.5-3.8L6.4 27l1.7-9.3-6.3-6.8z" fill="#eacd76" stroke="url(#SVGID_1_)" stroke-miterlimit="10"/><path d="M29.6 10.8c-.1-.3-.3-.5-.6-.5l-9.1-1.5-4.2-8c-.1-.3-.4-.4-.7-.4h-.2c-.3 0-.5.2-.7.4l-4.2 8-9.1 1.5c-.3 0-.5.3-.6.5-.1.3 0 .6.2.8l6.3 6.3-1.4 9.5c0 .3.1.6.3.8.1.1.3.2.5.2.1 0 .2 0 .4-.1l8.4-4.1 8.4 4.1c.1.1.2.1.4.1s.3-.1.5-.2c.2-.2.4-.5.3-.8l-1.4-9.5 6.3-6.3c.2-.2.3-.5.2-.8zm-7.9 6.3c-.2.2-.3.4-.2.7l1.2 8.4-7.4-3.6c-.1-.1-.3-.1-.4-.1-.1 0-.3 0-.4.1l-7.4 3.6 1.2-8.4c0-.3 0-.5-.2-.7l-5.5-5.5 7.9-1.4c.2 0 .5-.2.6-.4l3.7-7 3.7 7c.1.2.3.4.6.4l7.9 1.4-5.3 5.5z" fill="#eacd76" stroke="#cea642" stroke-width=".5" stroke-miterlimit="10"/></svg>