<svg version="1.1" id="Ebene_1" xmlns="http://www.w3.org/2000/svg" x="0" y="0" viewBox="0 0 600 600" xml:space="preserve"><style>.st0{fill:#e20613}.st1{fill:#fff}.st2{fill:#1d1d1b}</style><path class="st0" d="M580 300c0 154.6-125.4 280-280 280S20 454.6 20 300 145.4 20 300 20s280 125.4 280 280z"/><path class="st1" d="M560.6 300c0 143.9-116.7 260.6-260.6 260.6-143.9 0-260.6-116.7-260.6-260.6C39.4 156.1 156.1 39.4 300 39.4c143.9 0 260.6 116.7 260.6 260.6z"/><path class="st0" d="M556.2 300c0 141.5-114.7 256.2-256.2 256.2S43.8 441.5 43.8 300 158.5 43.8 300 43.8 556.2 158.5 556.2 300z"/><path class="st1" d="M328 460.6l-1.3-6 2.1-.5c1.7-.4 3.5-.6 4.9.1-1.2-2.3-3.9-2.1-6.3-1.6l-2.1.5 1.6 7.7 1.1-.2zm-14.1-6.5l-.7-2.8-6.2 10.8 2.1.3 4.8-8.3zm10.7-9.2l3.4-.7c1-.2 2.2-.3 3.2.2-.9-1.9-3-2-4.6-1.6l-3.4.7 1.5 7 1.1-.2-1.2-5.4zm-19.1 19.8l-3.2 5.5-1.3-.2-.7 1.2 3.5.5 3.2-5.5 10.2 1.4-.3-1.3-11.4-1.6zm25.7-14.1c1.2-.1 2.2.1 3.2.4 1.6-1.3 2.3-3 1.8-5.3-.4-1.7-1.1-2.8-2.3-3.5.4.6.6 1.3.8 2.1.7 3-.8 5-3.5 6.3zm27.3 18.4v1.3c-1.8.7-4.1.6-5.5.6-3.2-.2-5.8-1.2-7.9-2.8 2.1 2.5 5.3 4.1 9.3 4.3 1.4.1 3.6.1 5.5-.6v-3.3c-.3.2-.8.4-1.4.5zm-42.7-19.2l6.1 23.1-2.5-.3.3 1.3 3.6.5-6.5-24.4-1-.2zm43.8-1.4l-.3 2.5c-1.5-1-3.1-1.5-4.9-1.6-5.5-.3-9.3 3.5-9.6 8.8-.2 3.4 1.2 6.2 3.4 7.9-1.3-1.7-2.1-3.9-1.9-6.5.3-5.4 4.1-9.1 9.6-8.8 1.7.1 3.4.6 4.8 1.6l.4-3.3-1.5-.6zm-22.8 4.5c.4.6.7 1.3.8 2.1 1 4.9-2.8 6.9-7.4 7.9l-5 1 .4 1.7 6.1-1.3c4.6-1 8.4-3 7.4-7.9-.4-1.5-1.2-2.7-2.3-3.5z"/><path class="st2" d="M286 450.6h4.5v1.9c.8-1.5 1.8-2.3 3.5-2.3 2.2 0 3.3 1.6 3.3 3.7v13.9h-4.6V456c0-.6 0-1.6-1-1.6s-1.1 1.2-1 1.6v11.8h-4.6l-.1-17.2m-13.5 4.6c0-2 1.1-4.9 5.7-4.9s5.7 2.9 5.7 4.9v4.7h-6.7v3.7c0 .6 0 1.4 1 1.4 1.1 0 1.1-.8 1.1-1.4v-2.2h4.6v1.8c0 2-1 4.9-5.7 4.9-4.6 0-5.7-2.9-5.7-4.9v-8m4.7 1.5h2.1v-1.9c0-.6 0-1.4-1-1.4-1.1 0-1 .8-1 1.4l-.1 1.9zm-25.5-6.1h4.5v2.1h.1c.9-1.6 1.7-2.5 3.6-2.5 1.5 0 2.8.7 3.2 2.5.9-1.6 1.6-2.5 3.7-2.5 2.2 0 3.4 1.6 3.4 3.7v13.9h-4.6v-11.6c0-.6 0-1.9-1.1-1.9s-1.1 1.5-1.1 1.9v11.6h-4.6v-11.6c0-.6 0-1.9-1.1-1.9s-1.1 1.5-1.1 1.9v11.6H252l-.3-17.2m-9.2 0h4.4v3h.1c.7-1.6 1.2-3.4 3.3-3.4v5.6h-1.1c-1.6 0-2 1-2 2.2v9.8h-4.6v-17.2m-7.2-4.3h4.6v3.2h-4.6v-3.2m0 4.3h4.6v17.2h-4.6v-17.2zm-12.3-4.3h10.4v4.2h-5.4v4.3h4.8v4.1h-4.8v9h-5v-21.6m108.1 4.4c2.7-1.4 4.2-3.3 3.5-6.5-.9-4.2-4.5-5-9.2-4l-6.2 1.3 4.8 22.7 6.1-1.3c4.6-1 8.4-3 7.4-7.9-.7-3.2-3.3-4.7-6.4-4.3zm-8-7.3l3.4-.7c1.9-.4 4.4-.2 4.9 2.5.7 3.3-1.9 4.2-5.1 4.9l-1.8.4-1.4-7.1zm6.1 16.9l-2.4.5-1.6-7.7 2.1-.5c2.8-.6 6-.8 6.8 2.8.5 3.1-2 4.3-4.9 4.9zM312 448l-13.1 21.7 3.5.5 3.2-5.5 11.3 1.6 1.5 6.1 3.6.5-6.5-24.4-3.5-.5zm-5 14.1l6.2-10.8 3 12.1-9.2-1.3zm47.4-12.8c1.7.1 3.4.6 4.9 1.6l.4-3.3c-1.7-.8-3.5-1.2-5.3-1.3-7.3-.4-12.8 4.2-13.2 11.5-.4 7.6 4.4 12.7 11.9 13.1 1.4.1 3.6.1 5.5-.6V467c-1.2.7-3.5 1-5.3.9-4.9-.3-8.8-4.2-8.5-9.8.2-5.3 4.1-9.1 9.6-8.8zm18 12.7h-1.3v-1.2h1.2v-1.3l1.7-.5v1.8h1.5v1.2H374v3c0 .6.2 1.1.8 1.1.3 0 .6-.1.8-.2l.1 1.3c-.4.1-.7.2-1.2.2-1.3 0-2.1-.8-2.1-2.1V462m-7.2-.9c.7-.3 1.5-.5 2.3-.5 2 0 2.8.8 2.8 2.7v2.4c0 .5 0 1 .1 1.4h-1.5c-.1-.3-.1-.8-.1-1-.4.7-1.2 1.1-2 1.1-1.1 0-2.3-.7-2.3-1.9 0-1 .5-1.5 1.1-1.9.6-.3 1.5-.4 2.2-.4h.9c0-1-.5-1.4-1.5-1.4-.7 0-1.4.3-2 .7v-1.2m2 5.1c.5 0 .9-.2 1.2-.6.3-.4.3-.8.3-1.3h-.7c-.8 0-1.9.1-1.9 1.1 0 .5.5.8 1.1.8z"/><path transform="translate(-1.394 1.086)" class="st2" d="M361.4 465.5h1.8v1.8h-1.8z"/><path class="st2" d="M257.6 429h1.5v1c.3-.7.9-1.2 1.8-1.2 1.9 0 2.6 1.6 2.6 4.4 0 3.4-1.4 4.2-2.5 4.2-.9 0-1.6-.4-1.9-1.2v3.6h-1.6V429zm3 7c.9 0 1.4-.7 1.4-3 0-1.9-.2-3-1.4-3-1.1 0-1.4 1.2-1.4 2.9 0 2 .2 3.1 1.4 3.1zm4.2-7h1.6v1.3c.4-.9 1-1.5 1.9-1.5.2 0 .3 0 .4.1v1.7c-.1 0-.4-.1-.7-.1-.7 0-1.6.3-1.6 1.9v4.9h-1.6V429zm9.9 6.4c0 .3.2.6.4.6h.3v1.1c-.2.1-.5.2-.8.2-.7 0-1.3-.3-1.4-1.1-.4.8-1.1 1.2-2 1.2-1.3 0-2.1-.7-2.1-2.3 0-1.8.8-2.2 1.9-2.6l1.3-.4c.6-.2 1-.3 1-1s-.3-1.2-1.1-1.2c-1.1 0-1.2.8-1.2 1.6h-1.6c0-1.7.7-2.7 2.9-2.7 1.4 0 2.6.6 2.6 2v4.6zm-4.6-9.5h1.5v1.6h-1.5v-1.6zm3.1 6.9c-.4.3-1.3.5-1.8.8-.5.2-.7.7-.7 1.3 0 .7.3 1.2 1 1.2 1 0 1.5-.7 1.5-1.9v-1.4zm-.6-6.9h1.5v1.6h-1.5v-1.6zm7.2 5.4v-.2c0-.7-.2-1.3-1.1-1.3-.7 0-1.2.3-1.2 1.1 0 .6.3.9 1.2 1.2l1 .4c1.2.4 1.8 1.1 1.8 2.4 0 1.7-1.3 2.5-2.9 2.5-2.1 0-2.7-1-2.7-2.5v-.3h1.5v.3c0 .9.3 1.5 1.3 1.5.9 0 1.3-.5 1.3-1.2 0-.6-.3-1-.9-1.2l-1.3-.5c-1.2-.4-1.7-1-1.7-2.4 0-1.5 1.1-2.2 2.8-2.2 2.1 0 2.6 1.2 2.6 2.2v.4h-1.7zm4.2 2v.5c0 1.1.1 2.5 1.4 2.5 1.2 0 1.3-1.3 1.3-1.8h1.6c0 1.8-1.1 2.9-2.9 2.9-1.3 0-3-.4-3-4.2 0-2.1.5-4.4 3-4.4 2.3 0 2.9 1.4 2.9 3.6v.9H284zm2.6-1.2v-.4c0-1-.3-1.8-1.3-1.8s-1.4 1-1.4 2.1v.2h2.7zm2.8-3.1h1.5v1c.4-.7 1.2-1.2 2.1-1.2 1.2 0 2 .6 2 2.2v6.2h-1.6v-5.6c0-1.1-.3-1.5-1.1-1.5-.7 0-1.3.5-1.3 1.6v5.5h-1.6V429zm6.4 0h1.1v-2.3h1.6v2.3h1.3v1.2h-1.3v4.9c0 .6.2.9.7.9h.6v1.2c-.4.1-.8.1-1.3.1-1.1 0-1.7-.3-1.7-2v-5.1h-1.1V429zm4.9-2.8h1.6v1.6h-1.6v-1.6zm0 2.8h1.6v8.2h-1.6V429zm4.5 4.3v.5c0 1.1.1 2.5 1.4 2.5 1.2 0 1.3-1.3 1.3-1.8h1.6c0 1.8-1.1 2.9-2.9 2.9-1.3 0-3-.4-3-4.2 0-2.1.5-4.4 3-4.4 2.3 0 2.9 1.4 2.9 3.6v.9h-4.3zm2.6-1.2v-.4c0-1-.3-1.8-1.3-1.8s-1.4 1-1.4 2.1v.2h2.7zm2.8-3.1h1.6v1.3c.4-.9 1-1.5 1.9-1.5.2 0 .3 0 .4.1v1.7c-.1 0-.4-.1-.7-.1-.7 0-1.6.3-1.6 1.9v4.9h-1.6V429z"/><path class="st2" d="M314.5 429h1.1v-2.3h1.6v2.3h1.3v1.2h-1.3v4.9c0 .6.2.9.7.9h.6v1.2c-.3.1-.8.1-1.3.1-1.1 0-1.7-.3-1.7-2v-5.1h-1.1V429zm7.6 0h1.8l1.4 6.4 1.3-6.4h1.7l-2.2 8.2h-1.9l-2.1-8.2zm9.7-.3c2.4 0 3.1 1.8 3.1 4.3s-.8 4.3-3.1 4.3-3-1.8-3-4.3.6-4.3 3-4.3zm0 7.4c1.2 0 1.4-1 1.4-3.1 0-1.8-.2-3.1-1.4-3.1s-1.4 1.3-1.4 3.1c0 2.1.2 3.1 1.4 3.1zm3.7-7.1h1.6v1c.4-.7 1.2-1.2 2.1-1.2 1.2 0 2 .6 2 2.2v6.2h-1.6v-5.6c0-1.1-.3-1.5-1.1-1.5-.7 0-1.3.5-1.3 1.6v5.5h-1.6V429z"/><path class="st1" d="M106.2 152.2l2.4-3.1 38.1 11.5-2.3 3-11.8-3.6-10.4 13.2 6.3 10.6-2.3 3-20-34.6zm14.2 18.3l9-11.4-19.3-6.1 10.3 17.5zm4-39.9l2.6-2.4 15.4 17c5.7 6.4 11 6.1 16 1.5 5.1-4.6 5.9-9.8.1-16.1l-15.4-17 2.6-2.4 15.9 17.6c5.1 5.6 6.4 13.2-1.2 20.1-7.6 6.9-15 4.8-20.1-.8l-15.9-17.5zm47.3-7.7c4 6.5 9.9 5.5 15.5 1.9 3.3-2.1 7.1-7.1 4.2-11.6-2.3-3.5-6.7-2.7-10-1.5l-8 2.7c-4.3 1.4-8.7 1.8-11.8-3-2-3.1-3.6-10 5.1-15.6 6.2-3.9 13.7-4.1 17.7 2.3l-3 1.9c-3.2-4.7-8.7-4.5-13.1-1.7-4.1 2.6-6.8 6.6-3.9 11.2 1.9 2.9 4.8 2.8 7.8 1.8l8.8-3c5.2-1.6 10.1-2.1 13.3 3.1 1.4 2.1 4.8 9.5-6.2 16.5-7.4 4.7-14.9 4.8-19.4-3l3-2zm62.6-18.4l-2.3 1-3-6h-.1c-.3 5.8-4 9.8-8.9 11.8-10.8 4.5-19.7-1.8-23.5-11.1-3.9-9.3-2-20 8.7-24.5 7.2-3 14.6-1.5 19 5.4l-3.3 1.4c-2.1-3.7-8.1-6.7-14.6-4-9 3.8-9.7 12.9-6.6 20.4s10.1 13.4 19.1 9.7c7.6-3.1 9.8-10.3 6.6-17.5l-11.6 4.8-1.1-2.8 14.5-6 7.1 17.4zm-1.1-38l24.9-5.7.7 2.9-21.5 4.9 3 13 20.1-4.6.7 2.9-20.1 4.8 3.3 14.2 21.7-5 .7 2.9-25.2 5.7-8.3-36zm34.5-7l26.6-2 .2 3.1-21.9 32.6 24.8-1.9.2 3-28.7 2.2-.2-3.1 21.9-32.6-22.6 1.7-.3-3zm37.8-1.9l25.5 1.9-.2 3-22-1.6-1 13.3 20.6 1.5-.2 3-20.6-1.5-1.1 14.6 22.2 1.6-.2 3-25.7-1.9 2.7-36.9zm35.8 3.9l3.5.6-6.7 36.4-3.5-.6 6.7-36.4zm39 21.8c.5-5.8-3-10.3-8.2-11.9-9.4-2.9-15.8 3.7-18.2 11.4-2.4 7.7-.9 16.8 8.5 19.7 6.5 2 12.3-1.7 14.9-7.8l3.4 1c-3.6 8.4-10.9 12.2-19.1 9.6-11.1-3.5-13.9-14-10.9-23.6 3-9.6 11.3-16.7 22.4-13.2 6.7 2.1 12.1 8.2 10.6 15.9l-3.4-1.1zm18.7-4.6l3.1 1.6-7.4 14.2 19.5 10.2 7.4-14.2 3.1 1.6-17.1 32.9-3.1-1.6 8.3-15.9-19.5-10.2-8.3 15.9-3.1-1.6L399 78.7zm38 21.3l3.1 2.4-2.1 38 .1.1 19.1-24.8 2.8 2.2-22.6 29.3-3.1-2.4 2.1-38-.1-.1-19.1 24.8-2.8-2.2L437 100zm33.3 27.6l17.4 18.7-2.2 2-15-16.2-9.8 9.1 14 15.1-2.2 2-14-15.1-10.7 9.9 15.1 16.3-2.2 2-17.5-18.9 27.1-24.9zm22.1 24.5l16.5 24.2-2.5 1.7-7.3-10.7-28.1 19.2-2-2.9 28.1-19.2-7.3-10.7 2.6-1.6zm-191.3 70c-2.5 0-5-.9-6.9-2.8l-26.9-26.6c-3.8-3.8-3.9-9.9-.1-13.7 3.8-3.8 9.9-3.9 13.7-.1l20 19.8 43.3-44c3.8-3.8 9.9-3.8 13.7 0 3.8 3.8 3.8 9.9 0 13.7l-50.2 50.8c-1.7 1.9-4.2 2.8-6.6 2.9z"/><path class="st1" d="M361.4 172.2l-17.5 17.7c-1 23.5-20.4 42.3-44.1 42.3-24.4.1-44.3-19.7-44.4-44.1-.1-24.4 19.7-44.3 44.1-44.4 12.9 0 25.1 5.5 33.6 15.3l13.7-13.8a63.32 63.32 0 00-47.4-20.9c-35.1.1-63.6 28.8-63.5 63.9.1 35.1 28.8 63.6 63.9 63.5 35.1-.1 63.6-28.8 63.5-63.9 0-3.6-.3-7.3-1-10.9-.2-1.6-.5-3.2-.9-4.7zM187.6 300.4h-27v-18.6h83.3v18.6h-27v55.3h-29.2l-.1-55.3zm110.7-21.2c17.7 0 50.5 1.2 50.6 39.6 0 38.3-32.8 39.6-50.5 39.6-17.7 0-50.5-1.2-50.5-39.6-.1-38.4 32.7-39.6 50.4-39.6zm0 60.4c11.9 0 19.5-5.9 19.5-20.9 0-15-7.6-20.9-19.5-20.9s-19.5 5.9-19.5 20.9c.1 15 7.6 20.9 19.5 20.9zm58.4-57.8H417c20.7 0 28.4 9.3 28.4 25.8 0 14.2-7.5 25.2-28.2 25.2h-31.3v23h-29.2v-74zm29.2 32.9h18.9c7.3 0 10.1-2.3 10.1-7.7 0-5.6-2.8-7.9-10.1-7.9H386l-.1 15.6zM98.1 370h6.7v17.9c0 4.4.2 9.7 8.8 9.7 8.7 0 8.9-5.3 8.9-9.7V370h6.7v18.1c0 5.2-.2 14.5-15.5 14.5s-15.5-9.3-15.5-14.5V370zm37.2 0h7.6l18.9 23.8h.1V370h6.4v31.7h-7.5l-19-23.8h-.1v23.8h-6.4V370zm48.2 5h-11.9v-5H202v5h-11.9v26.7h-6.7l.1-26.7zm21.8-5h27.5v5h-20.9v8h20v5h-20v8.8h21.2v5h-27.9l.1-31.8zm32.9 0h20.1c8.1 0 10.7 3.7 10.7 8.6 0 4.1-2.3 6.7-5.2 7.6v.1c3.8.8 4.6 4.1 4.6 8.6 0 1.5 0 5.1 1.3 6.8h-7.2c-.5-.9-.8-2.5-.8-4.8 0-4.5-.6-7.7-5.5-7.7h-11.3v12.5h-6.7V370zm18.1 14.2c3.7 0 5.7-1.1 5.7-4.7 0-3.3-2.2-4.6-5.7-4.6h-11.5v9.2h11.5zm18.1-14.2h7.6l18.9 23.8h.1V370h6.4v31.7h-7.5l-19-23.8h-.1v23.8h-6.4V370zm39.5 0h27.5v5h-20.9v8h20v5h-20v8.8h21.2v5h-27.9V370zm32.9 0h6.7v12.3h19.7V370h6.7v31.7h-6.7v-14.4h-19.7v14.4h-6.7V370zm39.5 0h9.6l11.1 24.6 11-24.6h9.5v31.7h-6.3l.3-26.2h-.1l-11.7 26.2H404l-11.6-26.2h-.1l.3 26.2h-6.3V370zm47.6 0h27.5v5h-20.9v8h20v5h-20v8.8h21.2v5h-27.9l.1-31.8zm33 0h7.6l18.9 23.8h.1V370h6.4v31.7h-7.5l-19-23.8h-.1v23.8h-6.4V370zm-307.7 77.5l20.3 15.6-1.8 2.4-17.5-13.5-8.1 10.6 16.4 12.6-1.8 2.4-16.5-12.6-8.9 11.6 17.7 13.6-1.8 2.4-20.5-15.7 22.5-29.4zm27.8 20.2l4.4 2.7-5.7 34.4 27.6-21.3 4.4 2.7-19 31.8-3-1.8 16.4-27.4-.1-.1-27.3 21-2.8-1.7 5.5-34-.1-.1-16.3 27.4-3-1.8 19-31.8zm38.7 21.9l15.4 5.9c6.2 2.4 8.9 7.5 6.5 13.8-2.4 6.2-7.8 8.3-14 6l-12.1-4.6-5.7 14.8-3.3-1.3 13.2-34.6zm-3.2 18.2l11.3 4.3c4.6 1.7 8.6.6 10.4-4.1 1.8-4.7-.5-8.3-5-10l-11.3-4.3-5.4 14.1zm35.2-7.5l23.1 4.5-.6 3-19.6-3.8-2.5 13.1 17.4 3.4-.6 3-17.4-3.4-3.3 17.3-3.5-.7 7-36.4zm42.3 4.3c11.6 0 17.4 9.2 17.4 19.3 0 10.1-5.8 19.3-17.4 19.3-11.7 0-17.5-9.2-17.5-19.3 0-10.1 5.8-19.3 17.5-19.3zm0 35.5c9.7 0 13.9-8.2 13.9-16.3 0-8.1-4.2-16.3-13.9-16.3-9.8 0-13.9 8.2-13.9 16.3 0 8.2 4.1 16.3 13.9 16.3zm22-35.6l3.4-.8 3.5 15.7 21.5-4.7-3.5-15.7 3.4-.8 8 36.1-3.4.8-3.9-17.5-21.5 4.7 3.9 17.5-3.4.8-8-36.1zm38-8.7l3.2-1.4 13.3 31.3 19.1-8.1 1.2 2.8-22.3 9.5-14.5-34.1zm25.2-11.2l21.5-13.8 1.6 2.5-18.5 11.9 7.2 11.3 17.4-11.1 1.6 2.5-17.4 11.1 7.9 12.3 18.8-12 1.6 2.5-21.7 13.9-20-31.1zm30.3-18.9l3.1-2.4 36.3 11.4.1-.1-19.2-24.7 2.8-2.2 22.8 29.2-3.1 2.4-36.3-11.4-.1.1 19.2 24.7-2.8 2.2-22.8-29.2z"/></svg>